<svg id="Layer_2" data-name="Layer 2" xmlns="http://www.w3.org/2000/svg" viewBox="0 0 811.59 207.67"><defs><style>.cls-1{fill:#f4f8fc;}.cls-2{fill:#1ca254;}.cls-3{fill:none;stroke:#1ca254;stroke-miterlimit:10;stroke-width:20px;}</style></defs><title>book kit logo</title><path class="cls-1" d="M401.76,334.79q-10.55,0-21-10.08V333H354.13V175.34h26.62V229q10.36-10.36,22.72-10.27a21.52,21.52,0,0,1,10.6,2.76,21.16,21.16,0,0,1,7.23,6.61,36.14,36.14,0,0,1,4.28,9.32,58.07,58.07,0,0,1,2.23,10,76.21,76.21,0,0,1,.57,9.37v36.89A80.87,80.87,0,0,1,427,309.36a48.57,48.57,0,0,1-4.47,13A22.27,22.27,0,0,1,401.76,334.79Zm-9.22-19.11a7.41,7.41,0,0,0,4.9-1.62,9.36,9.36,0,0,0,2.85-4.85,35.64,35.64,0,0,0,1.19-6.56q0.29-3.33.29-8.18V255.69a57.39,57.39,0,0,0-.38-7A25.86,25.86,0,0,0,400,242.8a9,9,0,0,0-3.09-4.28,7.86,7.86,0,0,0-5-1.38q-5.42.1-11.12,4.37v70.65A21.23,21.23,0,0,0,392.54,315.68Z" transform="translate(-97.33 -168.35)"/><path class="cls-1" d="M480.68,334.79q-18.16,0-27.05-10.22t-8.89-29.24V258.16q0-19,8.89-29.24t27.05-10.22q18.26,0,27.24,10.22t9,29.24v37.18q0,19-9,29.24T480.68,334.79Zm0.1-18.73a9,9,0,0,0,5.28-1.43,8,8,0,0,0,2.95-4.42,31,31,0,0,0,1.19-5.8q0.29-2.8.29-7.27V256.35q0-3.52-.14-5.85a40.87,40.87,0,0,0-.67-5.09,11.8,11.8,0,0,0-1.57-4.33,8.89,8.89,0,0,0-2.85-2.66,8.49,8.49,0,0,0-4.47-1.09,8.81,8.81,0,0,0-5.28,1.47,8.2,8.2,0,0,0-2.95,4.47,31,31,0,0,0-1.19,5.8q-0.29,2.8-.29,7.27v40.79q0,3.52.14,5.85a39.45,39.45,0,0,0,.67,5,11.75,11.75,0,0,0,1.57,4.28A8.89,8.89,0,0,0,476.3,315,8.49,8.49,0,0,0,480.77,316.06Z" transform="translate(-97.33 -168.35)"/><path class="cls-1" d="M569,334.79q-18.16,0-27.05-10.22t-8.89-29.24V258.16q0-19,8.89-29.24T569,218.7q18.26,0,27.24,10.22t9,29.24v37.18q0,19-9,29.24T569,334.79Zm0.1-18.73a9,9,0,0,0,5.28-1.43,8,8,0,0,0,2.95-4.42,31,31,0,0,0,1.19-5.8q0.29-2.8.29-7.27V256.35q0-3.52-.14-5.85a40.87,40.87,0,0,0-.67-5.09,11.8,11.8,0,0,0-1.57-4.33,8.89,8.89,0,0,0-2.85-2.66,8.49,8.49,0,0,0-4.47-1.09,8.81,8.81,0,0,0-5.28,1.47,8.2,8.2,0,0,0-2.95,4.47,31,31,0,0,0-1.19,5.8q-0.29,2.8-.29,7.27v40.79q0,3.52.14,5.85a39.45,39.45,0,0,0,.67,5,11.75,11.75,0,0,0,1.57,4.28,8.89,8.89,0,0,0,2.85,2.66A8.49,8.49,0,0,0,569.1,316.06Z" transform="translate(-97.33 -168.35)"/><path class="cls-1" d="M623.78,332.8V175.15h26.43v90.23l28.14-44.88,28.81-.1-27.57,45.07L706.69,333H678.83l-20.06-55.34-8.56,12.17v43H623.78Z" transform="translate(-97.33 -168.35)"/><path class="cls-1" d="M717.53,332.8V175.15H744v90.23l28.14-44.88,28.81-.1-27.57,45.07L800.44,333H772.58l-20.06-55.34L744,289.82v43H717.53Z" transform="translate(-97.33 -168.35)"/><path class="cls-1" d="M811.85,202.63V180.19h26.72v22.44H811.85Zm0,130.36V220.41h26.62V333H811.85Z" transform="translate(-97.33 -168.35)"/><path class="cls-1" d="M890.76,334.51a32.11,32.11,0,0,1-13.07-2.57,18.74,18.74,0,0,1-8.27-7.08,32.69,32.69,0,0,1-4.18-10.32A61.15,61.15,0,0,1,864,301.23V238H852.83V220.41H864V187.32h26.72v33.09h17.11V238H890.67v64.94q0,5.51,2.42,7.94t7.75,2.52a46.1,46.1,0,0,0,8.08-.57v20.35A118.4,118.4,0,0,1,890.76,334.51Z" transform="translate(-97.33 -168.35)"/><path class="cls-2" d="M291.83,375.49l-89.34-55.82a10,10,0,0,0-10.55,0l-89.34,55.82a3.45,3.45,0,0,1-5.28-2.93V199.63a10,10,0,0,1,10-10H287.15a10,10,0,0,1,10,10V372.56A3.45,3.45,0,0,1,291.83,375.49Z" transform="translate(-97.33 -168.35)"/><path class="cls-1" d="M291.83,354.16l-89.34-55.82a10,10,0,0,0-10.55,0l-89.34,55.82a3.45,3.45,0,0,1-5.28-2.93V178.3a10,10,0,0,1,10-10H287.15a10,10,0,0,1,10,10V351.24A3.45,3.45,0,0,1,291.83,354.16Z" transform="translate(-97.33 -168.35)"/><line class="cls-3" x1="620.19" y1="194.87" x2="811.59" y2="194.87"/></svg>