<svg id="Layer_2" data-name="Layer 2" xmlns="http://www.w3.org/2000/svg" viewBox="0 0 913.17 215.53"><defs><style>.cls-1{fill:#f4f8fc;}.cls-2{fill:#1ca254;}.cls-3{fill:none;stroke:#1ca254;stroke-miterlimit:10;stroke-width:20px;}</style></defs><title>book-kit-logo</title><path class="cls-1" d="M19.83,368.66h0Z" transform="translate(-15.1 -156.5)"/><path class="cls-2" d="M199,363.64l-70.28-55.82a6.45,6.45,0,0,0-8.3,0L50.17,363.64c-1.81,1.44-4.15-.22-4.15-2.93V187.78c0-5.5,3.51-10,7.83-10h141.5c4.32,0,7.83,4.46,7.83,10V360.71C203.18,363.42,200.84,365.07,199,363.64Z" transform="translate(-15.1 -156.5)"/><path class="cls-1" d="M199,342.31l-70.28-55.82a6.45,6.45,0,0,0-8.3,0L50.17,342.31c-1.81,1.44-4.15-.22-4.15-2.93V166.45c0-5.5,3.51-10,7.83-10h141.5c4.32,0,7.83,4.46,7.83,10V339.39C203.18,342.1,200.84,343.75,199,342.31Z" transform="translate(-15.1 -156.5)"/><line class="cls-3" x1="692.3" y1="205.53" x2="913.17" y2="205.53"/><path class="cls-1" d="M345.43,280.55q0,24.41-10.89,39T303.07,334.2a33.38,33.38,0,0,1-16.59-4,34.31,34.31,0,0,1-12.05-11.65l-2.22,13.51H247V174.75h29.35v59.81a33.34,33.34,0,0,1,11.35-10.09,31.71,31.71,0,0,1,15.18-3.53q20.78,0,31.67,15.68t10.89,41.8v2.12Zm-29.35-2.12q0-16-4.69-25.42t-16-9.38a21.83,21.83,0,0,0-11.6,2.89,20.06,20.06,0,0,0-7.46,8.27v46.46a18.74,18.74,0,0,0,7.51,7.61,24,24,0,0,0,11.75,2.64q11.4,0,15.94-8.07t4.54-22.88v-2.13Z" transform="translate(-15.1 -156.5)"/><path class="cls-1" d="M359,276.51q0-24.41,13.62-40t37.72-15.58q24.21,0,37.92,15.53t13.72,40v2.12q0,24.61-13.67,40.09T410.58,334.2q-24.21,0-37.87-15.48T359,278.63v-2.12Zm29.35,2.07q0,14.9,5.24,23.92t16.94,9q11.4,0,16.69-9.06t5.29-23.87v-2.12q0-14.5-5.35-23.67t-16.84-9.16q-11.4,0-16.69,9.21t-5.29,23.62v2.12Z" transform="translate(-15.1 -156.5)"/><path class="cls-1" d="M475.63,276.51q0-24.41,13.62-40T527,220.94q24.21,0,37.92,15.53t13.72,40v2.12q0,24.61-13.67,40.09T527.17,334.2q-24.21,0-37.87-15.48t-13.67-40.09v-2.12ZM505,278.58q0,14.9,5.24,23.92t16.94,9q11.4,0,16.69-9.06t5.29-23.87v-2.12q0-14.5-5.35-23.67T527,243.63q-11.4,0-16.69,9.21T505,276.46v2.12Z" transform="translate(-15.1 -156.5)"/><path class="cls-1" d="M634.27,286.4h-8.07v45.69H596.76V174.75h29.45V264h7.26l25.31-41h34.09L658,272.38l40.24,59.71H664.43Z" transform="translate(-15.1 -156.5)"/><path class="cls-1" d="M744.91,286.4h-8.07v45.69H707.39V174.75h29.45V264h7.26l25.31-41h34.09l-34.9,49.42,40.24,59.71H775.07Z" transform="translate(-15.1 -156.5)"/><path class="cls-1" d="M849,196.84H819.54V174.75H849v22.09Zm0,135.25H819.54V223H849V332.08Z" transform="translate(-15.1 -156.5)"/><path class="cls-1" d="M908.2,196.23V223h18.36v20.68H908.2V299.2q0,6.35,2.62,9.08a9.34,9.34,0,0,0,7.06,2.72,27.05,27.05,0,0,0,4-.25,34.94,34.94,0,0,0,3.88-.86l2.52,21.28a59.1,59.1,0,0,1-8.67,2.27,52.27,52.27,0,0,1-9.18.76q-15.23,0-23.45-8.37t-8.22-26.52V243.63H862.81V223h15.94V196.23H908.2Z" transform="translate(-15.1 -156.5)"/></svg>