<svg id="Layer_2" data-name="Layer 2" xmlns="http://www.w3.org/2000/svg" viewBox="0 0 786.77 215.53"><defs><style>.cls-1{fill:#f4f8fc;}.cls-2{fill:#1ca254;}.cls-3{fill:none;stroke:#1ca254;stroke-miterlimit:10;stroke-width:20px;}</style></defs><title>book-kit-logo</title><path class="cls-1" d="M345.69,334.2q-10.55,0-21-10.08v8.27H298.06V174.75h26.62v53.63Q335,218,347.41,218.11a21.52,21.52,0,0,1,10.6,2.76,21.16,21.16,0,0,1,7.23,6.61,36.14,36.14,0,0,1,4.28,9.32,58.07,58.07,0,0,1,2.23,10,76.21,76.21,0,0,1,.57,9.37V293a80.87,80.87,0,0,1-1.43,15.74,48.57,48.57,0,0,1-4.47,13A22.27,22.27,0,0,1,345.69,334.2Zm-9.22-19.11a7.41,7.41,0,0,0,4.9-1.62,9.36,9.36,0,0,0,2.85-4.85,35.64,35.64,0,0,0,1.19-6.56q0.29-3.33.29-8.18V255.09a57.39,57.39,0,0,0-.38-7,25.86,25.86,0,0,0-1.43-5.85,9,9,0,0,0-3.09-4.28,7.86,7.86,0,0,0-5-1.38q-5.42.1-11.12,4.37v70.65A21.23,21.23,0,0,0,336.47,315.09Z" transform="translate(-97.09 -157.09)"/><path class="cls-1" d="M429.61,334.2q-18.16,0-27.05-10.22t-8.89-29.24V257.56q0-19,8.89-29.24t27.05-10.22q18.26,0,27.24,10.22t9,29.24v37.18q0,19-9,29.24T429.61,334.2Zm0.1-18.73A9,9,0,0,0,435,314a8,8,0,0,0,2.95-4.42,31,31,0,0,0,1.19-5.8q0.29-2.8.29-7.27V255.76q0-3.52-.14-5.85a40.87,40.87,0,0,0-.67-5.09A11.8,11.8,0,0,0,437,240.5a8.89,8.89,0,0,0-2.85-2.66,8.49,8.49,0,0,0-4.47-1.09,8.81,8.81,0,0,0-5.28,1.47,8.2,8.2,0,0,0-2.95,4.47,31,31,0,0,0-1.19,5.8q-0.29,2.8-.29,7.27v40.79q0,3.52.14,5.85a39.45,39.45,0,0,0,.67,5,11.75,11.75,0,0,0,1.57,4.28,8.89,8.89,0,0,0,2.85,2.66A8.49,8.49,0,0,0,429.71,315.47Z" transform="translate(-97.09 -157.09)"/><path class="cls-1" d="M522.94,334.2q-18.16,0-27.05-10.22T487,294.74V257.56q0-19,8.89-29.24t27.05-10.22q18.26,0,27.24,10.22t9,29.24v37.18q0,19-9,29.24T522.94,334.2Zm0.1-18.73a9,9,0,0,0,5.28-1.43,8,8,0,0,0,2.95-4.42,31,31,0,0,0,1.19-5.8q0.29-2.8.29-7.27V255.76q0-3.52-.14-5.85a40.87,40.87,0,0,0-.67-5.09,11.8,11.8,0,0,0-1.57-4.33,8.89,8.89,0,0,0-2.85-2.66,8.49,8.49,0,0,0-4.47-1.09,8.81,8.81,0,0,0-5.28,1.47,8.2,8.2,0,0,0-2.95,4.47,31,31,0,0,0-1.19,5.8q-0.29,2.8-.29,7.27v40.79q0,3.52.14,5.85a39.45,39.45,0,0,0,.67,5,11.75,11.75,0,0,0,1.57,4.28,8.89,8.89,0,0,0,2.85,2.66A8.49,8.49,0,0,0,523,315.47Z" transform="translate(-97.09 -157.09)"/><path class="cls-1" d="M582.71,332.2V174.56h26.43v90.23l28.14-44.88,28.81-.1-27.57,45.07,27.1,67.51H637.76L617.7,277.06l-8.56,12.17v43H582.71Z" transform="translate(-97.09 -157.09)"/><path class="cls-1" d="M681.46,332.2V174.56h26.43v90.23L736,219.91l28.81-.1-27.57,45.07,27.1,67.51H736.51l-20.06-55.34-8.56,12.17v43H681.46Z" transform="translate(-97.09 -157.09)"/><path class="cls-1" d="M780.78,202V179.6H807.5V202H780.78Zm0,130.36V219.82H807.4V332.39H780.78Z" transform="translate(-97.09 -157.09)"/><path class="cls-1" d="M865.7,333.92a32.11,32.11,0,0,1-13.07-2.57,18.74,18.74,0,0,1-8.27-7.08,32.69,32.69,0,0,1-4.18-10.32,61.15,61.15,0,0,1-1.28-13.31V237.41H827.76V219.82h11.12V186.73H865.6v33.09h17.11v17.59H865.6v64.94q0,5.51,2.42,7.94t7.75,2.52a46.1,46.1,0,0,0,8.08-.57v20.35A118.4,118.4,0,0,1,865.7,333.92Z" transform="translate(-97.09 -157.09)"/><path class="cls-2" d="M250.1,364.23l-70.28-55.82a6.45,6.45,0,0,0-8.3,0l-70.28,55.82c-1.81,1.44-4.15-.22-4.15-2.93V188.37c0-5.5,3.51-10,7.83-10h141.5c4.32,0,7.83,4.46,7.83,10V361.31C254.25,364,251.9,365.67,250.1,364.23Z" transform="translate(-97.09 -157.09)"/><path class="cls-1" d="M250.1,342.91l-70.28-55.82a6.45,6.45,0,0,0-8.3,0l-70.28,55.82c-1.81,1.44-4.15-.22-4.15-2.93V167c0-5.5,3.51-10,7.83-10h141.5c4.32,0,7.83,4.46,7.83,10V340C254.25,342.69,251.9,344.34,250.1,342.91Z" transform="translate(-97.09 -157.09)"/><line class="cls-3" x1="584.37" y1="205.53" x2="786.77" y2="205.53"/></svg>