<svg id="Layer_1" data-name="Layer 1" xmlns="http://www.w3.org/2000/svg" viewBox="0 0 224.13 207.98"><defs><style>.cls-1{fill:#23ce6b;}.cls-2{fill:#a2a9ae;}</style></defs><title>built</title><path class="cls-1" d="M753,248.08c-10.79,11.31-21.53,22.67-32.37,33.93-34.19,35.48-68.57,70.78-102.5,106.5-6.23,6.56-12.72,7.74-20.61,5.54-8.18-2.28-13.44-7.63-15.74-15.84-1.53-5.45-1.25-10.25,3.28-14.6q31.69-30.46,63.07-61.24,37.54-36.61,75-73.31c2.41-.47,3.51,1.48,4.85,2.79,4.37,4.23,8.7,8.52,12.92,12.91,2.54,2.64,5,4.8,9,2.71A2.41,2.41,0,0,1,753,248.08Z" transform="translate(-580.98 -187.09)"/><path class="cls-2" d="M753,248.08a1.08,1.08,0,0,0-.49,0c-7,4-11-.57-15.22-5.12-4.52-4.82-9.43-9.27-14.16-13.89-12.71-14.52-28.59-20.59-47.71-17.66-2.42.37-4.29,0.37-5.55-1.87s-0.05-3.88,1.38-5.35c12.82-13.11,28.45-18.53,46.6-16.8,16.2,1.55,29.25,9.17,40.08,21.06,3.58,3.94,7.45,7.61,11.21,11.39,2.3,2.3,3.69,4.63,1.45,7.87-1.47,2.13-.56,4.08,1.18,5.77,2.51,2.44,5,4.87,7.4,7.43,2.56,2.78,5.1,4.88,8.92,2,1.67-1.26,3.17-.3,4.49.8a55.81,55.81,0,0,1,10.4,10.7c3.1,4.43,2.79,8.19-1,12.12-4.28,4.43-8.65,8.78-13.06,13.08-4.58,4.47-9.37,4.65-14.14.4-3-2.66-5.69-5.61-8.51-8.44-1.8-1.81-2.68-3.77-1.08-6.21,1.79-2.73,1-5-1.31-7C760.18,255,757.21,250.91,753,248.08Z" transform="translate(-580.98 -187.09)"/></svg>