<svg id="Layer_1" data-name="Layer 1" xmlns="http://www.w3.org/2000/svg" viewBox="0 0 223.23 211.92"><defs><style>.cls-1{fill:#fed2ad;}.cls-2{fill:#b17214;}.cls-3{fill:#23ce6b;}</style></defs><title>growth</title><path class="cls-1" d="M328.81,246c4.1-2.2,8.14-4.51,12.31-6.56,6.39-3.13,13.5-1,16.94,4.78,3.68,6.24,2.35,13.66-3.78,17.59-21.25,13.63-42.68,27-63.95,40.56-9.65,6.16-20,5-30.39,3.42q-28.45-4.34-56.89-8.77c-1.8-.28-3.59-0.63-5.38-0.94a23.47,23.47,0,0,0-19.54,4.71c-5.62,4.36-12,7.78-17.88,11.78-2.18,1.47-3.27,1.6-4.34-1.18-4.19-10.83-8.57-21.58-12.89-32.36,0.68-1.87,2.42-2.65,3.87-3.73,10.53-7.8,20.88-15.83,31.59-23.38,6.34-4.47,10.75-10.15,12.75-17.77s6.9-13.13,12.7-18a21.27,21.27,0,0,1,8-3.94c3.33,0.45,6.52,2.56,10,.86,7.09,1.06,14,2.86,21.12,4.05,7.27,1.63,14.67,2.66,21.87,4.55,7.45,2,11.41,7.87,10.21,14.74-0.64,3.68-3,6.2-5.79,8.35-3.53,2.09-7.33,1.84-11.15,1.22q-9.6-1.55-19.19-3.19a33.67,33.67,0,0,0-6.43-.76c-4.59.1-8.21,3.06-8.91,7.22s1.57,8,6.1,9.61a51.21,51.21,0,0,0,8.77,1.86c12.3,2,24.63,4,36.89,6.21,6.54,1.19,12.55.68,18.19-2.92,9.49-4.78,18.66-10.15,27.9-15.39C323.77,247.29,325.87,245.4,328.81,246Z" transform="translate(-136.87 -101.64)"/><path class="cls-2" d="M328.81,246l-33.93,18.7c-10.42-1.56-18.86-6.29-24.46-15.45-1-1.64-2.45-3.28-1.53-5.51,4.07-3.5,6.39-7.7,4.69-13.16s-6.18-7.36-11.33-8.37c-6.47-1.27-12.91-2.72-19.37-4.09a68.07,68.07,0,0,1,29.68-24c3.31-1.44,6.6-3.17,10.41-2.93C308.54,196.65,327.56,219.4,328.81,246Z" transform="translate(-136.87 -101.64)"/><path class="cls-3" d="M265.84,189c0-12.66-.19-25.32,0-38,0.06-3.86-.79-5.76-4.87-6.92-12.45-3.55-19.19-12.42-21.61-24.92-0.7-3.62.54-4.3,4-3.7,13.29,2.31,20.89,9.39,26.32,25.24,2.41-14.73,9.47-26,22.23-33.4a44.52,44.52,0,0,1,17.94-5.59c3.51-.37,4,0.76,3.71,3.72a43.89,43.89,0,0,1-35.2,39.1c-3.81.78-5,2-4.71,5.7,0.29,4.06.07,8.15,0.07,13.29,4.4-4,8.28-6.73,13.16-7.6,3.32-.59,4.64.18,3.7,3.87-1.86,7.28-6,12.49-12.92,15.45-4.68,2-5.75,10.77-1.83,14.55C272.32,191.74,269,190.78,265.84,189Z" transform="translate(-136.87 -101.64)"/><path class="cls-1" d="M211.88,212.15c-4,3.17-8.66,5.42-12.08,9.42-2.95,3.45-5.77,7-6.87,11.37-2.28,9.15-7.53,15.88-15.33,21.09-11.82,7.89-22.43,17.49-34.57,25-2.24-5.34-6.7-10.95-6.1-15.94s8.31-6.6,13-9.57c10.78-6.88,20-15.33,27.06-26,6.46-9.79,15.28-15.47,27.06-16.13C206.61,211.19,209.25,211.86,211.88,212.15Z" transform="translate(-136.87 -101.64)"/><path class="cls-2" d="M265.84,189l10,0.82c2.39,0.34,4.92,0,7.13,1.35-8.86,3.56-17.94,6.79-25.32,13.1-5.12,4.39-9.86,9.22-14.78,13.85-6.42-1.17-12.83-2.34-19.25-3.54a2,2,0,0,1-1.71-1.55c10.76-13.28,24.32-21.59,41.57-23.33A12.42,12.42,0,0,0,265.84,189Z" transform="translate(-136.87 -101.64)"/><path class="cls-2" d="M268.89,243.72c4,9.94,11.58,15.78,21.51,19,1.57,0.5,3.2.84,4.47,2-7,5.28-14.78,4.74-22.85,3.22-13.19-2.49-26.45-4.61-39.69-6.87-7.33-1.25-11.28-5.82-10.33-12s6.11-9.19,13.58-8.07,14.75,2.23,22.09,3.58C261.55,245.24,265.25,245.29,268.89,243.72Z" transform="translate(-136.87 -101.64)"/></svg>