<svg id="Layer_1" data-name="Layer 1" xmlns="http://www.w3.org/2000/svg" viewBox="0 0 222.15 157.79"><defs><style>.cls-1{fill:#1ca254;}.cls-2{fill:#fabe95;}.cls-3{fill:#f0a877;}.cls-4{fill:#eaf2f5;}.cls-5{fill:#e9f1f4;}.cls-6{fill:#fcd5b1;}.cls-7{fill:#fad3ae;}.cls-8{fill:#f0af84;}.cls-9{fill:#f0b085;}.cls-10{fill:#efb085;}.cls-11{fill:#efb184;}.cls-12{fill:#efb48a;}</style></defs><title>handshake</title><path class="cls-1" d="M469.93,205.91c14.8,12.32,29.64,24.58,44.34,37,2.16,1.82,5.2,3.38,4.77,7.09,0.65,2-.47,3.59-1.44,5.1-10.18,15.68-21.36,30.58-34.47,44a10.41,10.41,0,0,1-4,2.93c-3.58,3.28-5.88.29-8.33-1.74Q454.4,286.62,438,273c1.27-20.11,9-37.8,20.5-54C461.86,214.24,465.4,209.62,469.93,205.91Z" transform="translate(-438.01 -205.91)"/><path class="cls-1" d="M582,250.88c-1.35-2.9-.89-5.12,1.75-7.31,12.08-10.06,24-20.29,36-30.47,2.77-2.35,5.5-4.75,8.25-7.13,16.57,15.84,26.35,35.32,30.93,57.59,0.7,3.39,1.54,6.79,1,10.31-6.16,3-10.53,8.35-15.79,12.53-5.55,4.41-10.71,9.31-16.18,13.82-1.39,1.14-2.84,3-5.19,1.85-2.15.24-3.31-1.33-4.54-2.61a320.94,320.94,0,0,1-34.7-44A7,7,0,0,1,582,250.88Z" transform="translate(-438.01 -205.91)"/><path class="cls-2" d="M523,255.69l24.37,5.15c-2,2-5.13,2.36-6.68,4.94a1.22,1.22,0,0,1-1.31.57c-4.19-2.33-6.17,1.5-8.93,3.14-2.47,1.73-5.85,2.33-7,5.66,1.68,3.73,4.61,4.52,8.2,3.37a61.93,61.93,0,0,1,7.62-2.33,16.39,16.39,0,0,1,13.94,3.21C568.1,290.84,584,301,599.47,311.54c2.45,1.67,5.21,3,6.89,5.62a8,8,0,0,0,.75,1.28c5.88,6.8,5.09,10.3-3.64,14.84,4.24,3.05,7.45,6.77,4.67,12.1s-7.68,4-12.9,2.47c1.88,3.81,2.62,7.36-.55,10.14-6.71,5.89-11.36-1.42-17.27-3.41,0.65,3.6.15,6.35-2.73,8.12s-5.68.74-8.39-.83c-5.74-3.33-11.53-6.58-17.31-9.86-5.24-.72-9.19-4.27-13.61-6.62-5.5-2.92-11.14-5.59-16.58-8.65a230.74,230.74,0,0,1-22.12-14.46c-1.56-1.2-3.4-2.18-3.87-4.36-3.71-4.82-8.63-8.63-11.68-14,9.53-5.65,15.56-14.72,22.36-23A227.8,227.8,0,0,0,519.12,259C520.06,257.57,520.66,255.61,523,255.69Z" transform="translate(-438.01 -205.91)"/><path class="cls-3" d="M529.93,269c1.24-2.54,4.56-5.11,5.82-4.65,5.15,1.88,7.18-4.55,11.6-3.55a154.26,154.26,0,0,0,32-6.49c1.79-.13,2,1.49,2.64,2.52,9.46,15.9,21.16,30.08,33.66,43.63,1,1.08,2.24,2,2.36,3.67-3.64,4.55-7.17,9.21-11.69,13-8.72-4.72-16.71-10.58-24.79-16.26-10.81-7.59-21.87-14.83-32.45-22.77-4.61-3.46-10.82-.87-16.1,1.33-5.48,2.27-9,.8-11-4.45C525.87,274.66,527.4,271.18,529.93,269Z" transform="translate(-438.01 -205.91)"/><path class="cls-3" d="M519,336a178,178,0,0,1,30,16c-5.51,3.33-11,6.65-16.53,10-2.71,1.66-5.49,2.54-8.34.56s-3.4-4.69-1.86-9.07c-2.92,1.91-4.91,3.15-6.83,4.5-3.24,2.28-6.68,3.21-10.13.79-3.28-2.3-3.82-5.59-2.39-9.27a4.21,4.21,0,0,0,0-1.48C507,342.31,513.62,339.95,519,336Z" transform="translate(-438.01 -205.91)"/><path class="cls-3" d="M519,336c-1,3.39-4.47,4-6.84,5.87-2.92,2.27-6.15,4.15-9.25,6.2-1.92.46-3.75,1.25-5.82,1.11a7.45,7.45,0,0,1-5.79-11.71,38.16,38.16,0,0,1,3.93-4.36c-3.33-1.55-6.71-3.24-7-7.38-0.23-3.49,1.86-5.88,4.57-7.78,7.92,5.81,15.7,11.83,24.51,16.31A7.47,7.47,0,0,1,519,336Z" transform="translate(-438.01 -205.91)"/><path class="cls-4" d="M523,255.69c-8.05,12.16-16.38,24.13-25.95,35.16-3.48,4-7.27,7.74-10.89,11.62a4.83,4.83,0,0,1-5,1.44l-2-1.92a323.28,323.28,0,0,0,34.18-42.67c2-3,3.82-6.21,5.72-9.32C521.26,251.28,523.55,252.5,523,255.69Z" transform="translate(-438.01 -205.91)"/><path class="cls-5" d="M618,304.18a222.43,222.43,0,0,1-38.67-49.83c0-1.82,1.42-2.59,2.67-3.47a351.45,351.45,0,0,0,33.06,43.47c2.43,2.71,5.15,5.16,7.73,7.73C621.5,303.38,620.31,305,618,304.18Z" transform="translate(-438.01 -205.91)"/><path class="cls-6" d="M607,342.26c-0.1,3.44-2.28,5.33-5.31,5.28-2.3,0-5.11-.87-5.56-4-0.28-2,4.3-7.26,6-7.27C604.64,336.29,607.1,339.33,607,342.26Z" transform="translate(-438.01 -205.91)"/><path class="cls-6" d="M589.71,358.84c-1.79-1.42-5.71-1.2-5.14-4.3,0.53-2.85,2.2-6.78,5.49-6.91,2.44-.1,4.89,2.66,4.91,5.94S592.51,357.95,589.71,358.84Z" transform="translate(-438.01 -205.91)"/><path class="cls-7" d="M609,325.73a5,5,0,0,1-5.24,4.81c-2.19-.06-4.86-1.49-4.55-4.3,0.34-3.07,2.55-6.18,5.36-6.35C606.71,319.76,609,322.57,609,325.73Z" transform="translate(-438.01 -205.91)"/><path class="cls-8" d="M591,326c-5.77-1.88-10.68-5.39-15.31-9-6.48-5.11-14-8.89-19.7-15h0c9,4.32,16.57,10.79,24.71,16.4,3.49,2.41,7.54,4.17,10.29,7.61h0Z" transform="translate(-438.01 -205.91)"/><path class="cls-6" d="M572,362.07c-2.65-.21-4.85-1.06-4.53-3.35,0.36-2.55,2-5.2,5-5.27a3.59,3.59,0,0,1,3.61,3.89C576,360.43,574.21,361.65,572,362.07Z" transform="translate(-438.01 -205.91)"/><path class="cls-9" d="M544,333.33c6.2,4.46,13.85,6.51,19.34,12C556.27,342.24,549.58,338.61,544,333.33Z" transform="translate(-438.01 -205.91)"/><path class="cls-10" d="M558.21,322.15l18.39,12.8C569.17,332.46,563.46,327.52,558.21,322.15Z" transform="translate(-438.01 -205.91)"/><path class="cls-3" d="M529.93,269c-1.84,3.06-2.27,8-7.94,6C523.2,271.11,526.62,270.15,529.93,269Z" transform="translate(-438.01 -205.91)"/><path class="cls-11" d="M556,302c-2.29-.33-3.73-1.91-5.19-3.47A6.27,6.27,0,0,1,556,302h0Z" transform="translate(-438.01 -205.91)"/><path class="cls-12" d="M591,326a6.88,6.88,0,0,1,5,3c-2.59-.71-4.16-1.23-5-3h0Z" transform="translate(-438.01 -205.91)"/></svg>